HIERARCHY
ROOT Hips
{
	OFFSET 0.000000 0.000000 0.000000 
	CHANNELS 6 Xposition Yposition Zposition Zrotation Yrotation Xrotation
	JOINT LeftUpLeg
	{
		OFFSET 1.363060 -1.794630 0.839290 
		CHANNELS 3 Zrotation Yrotation Xrotation
		JOINT LeftLeg
		{
			OFFSET 2.448110 -6.726130 0.000000 
			CHANNELS 3 Zrotation Yrotation Xrotation
			JOINT LeftFoot
			{
				OFFSET 2.562200 -7.039590 0.000000 
				CHANNELS 3 Zrotation Yrotation Xrotation
				JOINT LeftToeBase
				{
					OFFSET 0.157640 -0.433110 2.322550 
					CHANNELS 3 Zrotation Yrotation Xrotation
					End Site
					{
						OFFSET 0.000000 0.000000 0.000000 
					}
				}
			}
		}
	}
	JOINT RightUpLeg
	{
		OFFSET -1.305520 -1.794630 0.839290 
		CHANNELS 3 Zrotation Yrotation Xrotation
		JOINT RightLeg
		{
			OFFSET -2.542530 -6.985550 0.000000 
			CHANNELS 3 Zrotation Yrotation Xrotation
			JOINT RightFoot
			{
				OFFSET -2.568260 -7.056230 0.000000 
				CHANNELS 3 Zrotation Yrotation Xrotation
				JOINT RightToeBase
				{
					OFFSET -0.164730 -0.452590 2.363150 
					CHANNELS 3 Zrotation Yrotation Xrotation
					End Site
					{
						OFFSET 0.000000 0.000000 0.000000 
					}
				}
			}
		}
	}
	JOINT Spine
	{
		OFFSET 0.028270 2.035590 -0.193380 
		CHANNELS 3 Zrotation Yrotation Xrotation
		JOINT Spine1
		{
			OFFSET 0.056720 2.048850 -0.042750 
			CHANNELS 3 Zrotation Yrotation Xrotation
			JOINT Neck1
			{
				OFFSET -0.054170 1.746240 0.172020 
				CHANNELS 3 Zrotation Yrotation Xrotation
				JOINT Head
				{
					OFFSET 0.104070 1.761360 -0.123970 
					CHANNELS 3 Zrotation Yrotation Xrotation
					End Site
					{
						OFFSET 0.000000 0.000000 0.000000 
					}
				}
			}
			JOINT LeftArm
			{
				OFFSET 3.362410 1.200890 -0.311210 
				CHANNELS 3 Zrotation Yrotation Xrotation
				JOINT LeftForeArm
				{
					OFFSET 4.983000 -0.000000 -0.000000 
					CHANNELS 3 Zrotation Yrotation Xrotation
					JOINT LeftHand
					{
						OFFSET 3.483560 -0.000000 -0.000000 
						CHANNELS 3 Zrotation Yrotation Xrotation
						JOINT LeftHandIndex1
						{
							OFFSET 0.715260 -0.000000 -0.000000 
							CHANNELS 3 Zrotation Yrotation Xrotation
							End Site
							{
								OFFSET 0.000000 0.000000 0.000000 
							}
						}
					}
				}
			}
			JOINT RightArm
			{
				OFFSET -3.136600 1.374050 -0.404650 
				CHANNELS 3 Zrotation Yrotation Xrotation
				JOINT RightForeArm
				{
					OFFSET -5.241900 -0.000000 -0.000000 
					CHANNELS 3 Zrotation Yrotation Xrotation
					JOINT RightHand
					{
						OFFSET -3.444170 -0.000000 -0.000000 
						CHANNELS 3 Zrotation Yrotation Xrotation
						JOINT RightHandIndex1
						{
							OFFSET -0.622530 -0.000000 -0.000000 
							CHANNELS 3 Zrotation Yrotation Xrotation
							End Site
							{
								OFFSET 0.000000 0.000000 0.000000 
							}
						}
					}
				}
			}
		}
	}
}
MOTION
Frames: 10
Frame Time: 0.041667
1.449362 17.145327 -3.958744 -0.388682 3.399699 -2.769251 -0.448175 2.494196 -20.167636 7.519601 16.696664 50.384569 6.042958 -8.155084 -1.703021 0.499200 -4.529700 -12.571900 3.422813 -10.996135 -22.429125 -8.656089 -16.922064 53.844801 -4.338644 5.702506 -5.354480 -0.442700 4.269100 -11.834900 0.452238 -0.994898 -3.835512 2.523415 -0.642917 -0.906660 4.252396 -2.430761 11.693239 0.278900 -1.094500 10.675900 -31.354081 -42.076531 4.737864 52.989424 -44.633904 -35.525192 0.901906 -3.416410 23.295621 -7.125000 0.000000 0.000000 19.621058 38.796826 2.351791 -45.161091 43.072952 -28.504657 -0.665636 3.647612 9.583466 7.125000 0.000000 0.000000 
1.449041 17.143937 -3.957675 -0.374780 3.407128 -2.761739 -0.461228 2.485163 -20.171291 7.522178 16.698178 50.393769 6.037391 -8.140642 -1.729215 0.503100 -4.547100 -12.621100 3.407313 -11.006572 -22.441720 -8.662998 -16.924933 53.858707 -4.348335 5.725476 -5.358313 -0.442000 4.265800 -11.825700 0.450697 -1.004467 -3.839959 2.520540 -0.646192 -0.922866 4.252079 -2.424855 11.691850 0.279200 -1.091700 10.666100 -31.361321 -42.062665 4.744103 52.982564 -44.633237 -35.521568 0.905376 -3.417343 23.297303 -7.125000 0.000000 0.000000 19.653221 38.800346 2.387632 -45.158704 43.071669 -28.499529 -0.667977 3.647101 9.594754 7.125000 0.000000 0.000000 
1.448613 17.144044 -3.955857 -0.386884 3.389031 -2.766538 -0.449110 2.494980 -20.160847 7.524242 16.698411 50.395166 6.040854 -8.146286 -1.734162 0.500300 -4.534600 -12.585800 3.419941 -10.997078 -22.434624 -8.664003 -16.926990 53.865564 -4.349384 5.728064 -5.369832 -0.441800 4.265000 -11.823300 0.449031 -0.995612 -3.838678 2.498402 -0.642124 -0.917075 4.228792 -2.435443 11.696732 0.257200 -1.096100 10.667900 -31.346648 -42.049345 4.747373 52.971136 -44.632916 -35.511989 0.905743 -3.417082 23.292088 -7.125000 0.000000 0.000000 19.668326 38.799544 2.401855 -45.157339 43.071514 -28.497804 -0.668281 3.646389 9.591372 7.125000 0.000000 0.000000 
1.448506 17.142868 -3.955536 -0.354100 3.394001 -2.762899 -0.481062 2.482422 -20.161725 7.524165 16.699854 50.404823 6.027275 -8.116875 -1.755070 0.505300 -4.556700 -12.648400 3.383742 -11.006045 -22.440989 -8.672064 -16.929425 53.878491 -4.358615 5.748841 -5.372406 -0.444000 4.275300 -11.852600 0.447095 -1.002403 -3.847048 2.505924 -0.643050 -0.956454 4.230783 -2.432332 11.698830 0.261400 -1.095700 10.659400 -31.387946 -42.035674 4.789037 52.976582 -44.632218 -35.512731 0.904717 -3.417050 23.297736 -7.125000 0.000000 0.000000 19.695380 38.778862 2.461342 -45.187354 43.086103 -28.524987 -0.672951 3.647896 9.581048 7.125000 0.000000 0.000000 
1.447544 17.142654 -3.954681 -0.396645 3.382491 -2.768665 -0.434090 2.489835 -20.159138 7.528189 16.699401 50.402572 6.041472 -8.147661 -1.734967 0.497300 -4.521100 -12.547600 3.434616 -10.994051 -22.442632 -8.671608 -16.931820 53.891742 -4.347702 5.726048 -5.379737 -0.443400 4.272300 -11.844100 0.452766 -1.004697 -3.847105 2.503695 -0.644245 -0.956908 4.218148 -2.419058 11.705030 0.253200 -1.090500 10.661200 -31.389315 -42.016399 4.782790 52.978365 -44.633978 -35.518171 0.902678 -3.417380 23.305138 -7.125000 0.000000 0.000000 19.708311 38.800502 2.478178 -45.179852 43.081689 -28.512325 -0.670155 3.645252 9.610206 7.125000 0.000000 0.000000 
1.448185 17.141371 -3.953291 -0.385530 3.379512 -2.776728 -0.447071 2.484108 -20.146479 7.530223 16.701296 50.412089 6.034844 -8.131320 -1.759214 0.498900 -4.528500 -12.568400 3.416463 -11.004982 -22.441782 -8.679632 -16.935820 53.909266 -4.355361 5.743351 -5.392150 -0.445600 4.282800 -11.873700 0.450683 -1.000471 -3.849492 2.494868 -0.641208 -0.975724 4.205924 -2.419692 11.695345 0.243000 -1.091400 10.646900 -31.397214 -42.016866 4.812835 52.974346 -44.633022 -35.509199 0.902853 -3.416309 23.294193 -7.125000 0.000000 0.000000 19.733323 38.788602 2.498806 -45.197247 43.090096 -28.530044 -0.673912 3.646133 9.610360 7.125000 0.000000 0.000000 
1.448292 17.140622 -3.951901 -0.354406 3.378915 -2.778778 -0.478627 2.474594 -20.137198 7.529735 16.703010 50.421186 6.017497 -8.092057 -1.784549 0.503600 -4.549200 -12.627200 3.382030 -11.012157 -22.435412 -8.686837 -16.938824 53.921883 -4.359267 5.751061 -5.397784 -0.447200 4.290400 -11.895100 0.447056 -1.000661 -3.848895 2.496645 -0.641251 -0.967951 4.214803 -2.417776 11.705956 0.253400 -1.090900 10.658300 -31.407287 -42.007050 4.823276 52.988163 -44.639615 -35.524499 0.904178 -3.417148 23.318379 -7.125000 0.000000 0.000000 19.737434 38.790024 2.498249 -45.203402 43.092142 -28.535393 -0.672712 3.646149 9.607323 7.125000 0.000000 0.000000 
1.448079 17.139553 -3.951259 -0.347177 3.364392 -2.781252 -0.482568 2.482518 -20.137176 7.533239 16.704337 50.428987 6.034237 -8.132622 -1.786114 0.498200 -4.525000 -12.558700 3.376952 -11.001414 -22.440073 -8.691247 -16.941922 53.935867 -4.353542 5.737546 -5.403881 -0.449100 4.299300 -11.920300 0.445396 -0.997362 -3.850639 2.488383 -0.638652 -0.981798 4.203986 -2.418186 11.701424 0.242700 -1.090700 10.646800 -31.409912 -41.999888 4.835514 52.985169 -44.639755 -35.520329 0.903743 -3.415925 23.321952 -7.125000 0.000000 0.000000 19.768837 38.806543 2.507737 -45.220259 43.098135 -28.548629 -0.673159 3.646383 9.617275 7.125000 0.000000 0.000000 
1.447651 17.139125 -3.950511 -0.358532 3.366554 -2.777901 -0.469543 2.469138 -20.135923 7.534752 16.704712 50.429978 6.038329 -8.140966 -1.788057 0.495800 -4.514500 -12.528800 3.391595 -10.996507 -22.442504 -8.694277 -16.944128 53.947923 -4.351521 5.732296 -5.418719 -0.449700 4.302500 -11.929200 0.447668 -1.001324 -3.850656 2.487404 -0.640668 -0.980576 4.195973 -2.415837 11.700999 0.235800 -1.089800 10.645600 -31.400117 -42.003907 4.823818 52.979107 -44.638092 -35.517040 0.905838 -3.419158 23.308222 -7.125000 0.000000 0.000000 19.767739 38.812267 2.506373 -45.214913 43.095926 -28.542937 -0.674173 3.643775 9.598241 7.125000 0.000000 0.000000 
1.447651 17.138056 -3.949334 -0.344020 3.373153 -2.787344 -0.483939 2.450770 -20.119014 7.536562 16.707241 50.440728 6.027665 -8.114812 -1.819495 0.495700 -4.514000 -12.527400 3.372581 -11.005478 -22.431738 -8.699783 -16.946550 53.957991 -4.359168 5.748550 -5.432349 -0.448900 4.298700 -11.918500 0.445615 -1.005289 -3.849441 2.485956 -0.642945 -0.975023 4.203422 -2.416321 11.704652 0.242600 -1.089700 10.648900 -31.407362 -42.003004 4.832496 53.001294 -44.646745 -35.538320 0.905916 -3.417365 23.293340 -7.125000 0.000000 0.000000 19.776098 38.805469 2.509112 -45.232138 43.103839 -28.559790 -0.672348 3.642441 9.569108 7.125000 0.000000 0.000000 
